<?xml version="1.0" standalone="no"?><svg xmlns="http://www.w3.org/2000/svg" viewBox="0 0 1440 320"><path fill="#ff1f1f" fill-opacity="1" d="M0,128L0,224L36.9,224L36.9,96L73.8,96L73.8,128L110.8,128L110.8,64L147.7,64L147.7,64L184.6,64L184.6,192L221.5,192L221.5,32L258.5,32L258.5,160L295.4,160L295.4,96L332.3,96L332.3,160L369.2,160L369.2,128L406.2,128L406.2,256L443.1,256L443.1,192L480,192L480,96L516.9,96L516.9,160L553.8,160L553.8,256L590.8,256L590.8,192L627.7,192L627.7,32L664.6,32L664.6,224L701.5,224L701.5,128L738.5,128L738.5,256L775.4,256L775.4,288L812.3,288L812.3,224L849.2,224L849.2,256L886.2,256L886.2,160L923.1,160L923.1,96L960,96L960,160L996.9,160L996.9,96L1033.8,96L1033.8,160L1070.8,160L1070.8,288L1107.7,288L1107.7,64L1144.6,64L1144.6,224L1181.5,224L1181.5,224L1218.5,224L1218.5,256L1255.4,256L1255.4,288L1292.3,288L1292.3,64L1329.2,64L1329.2,224L1366.2,224L1366.2,32L1403.1,32L1403.1,288L1440,288L1440,0L1403.1,0L1403.1,0L1366.2,0L1366.2,0L1329.2,0L1329.2,0L1292.3,0L1292.3,0L1255.4,0L1255.4,0L1218.5,0L1218.5,0L1181.5,0L1181.5,0L1144.6,0L1144.6,0L1107.7,0L1107.7,0L1070.8,0L1070.8,0L1033.8,0L1033.8,0L996.9,0L996.9,0L960,0L960,0L923.1,0L923.1,0L886.2,0L886.2,0L849.2,0L849.2,0L812.3,0L812.3,0L775.4,0L775.4,0L738.5,0L738.5,0L701.5,0L701.5,0L664.6,0L664.6,0L627.7,0L627.7,0L590.8,0L590.8,0L553.8,0L553.8,0L516.9,0L516.9,0L480,0L480,0L443.1,0L443.1,0L406.2,0L406.2,0L369.2,0L369.2,0L332.3,0L332.3,0L295.4,0L295.4,0L258.5,0L258.5,0L221.5,0L221.5,0L184.6,0L184.6,0L147.7,0L147.7,0L110.8,0L110.8,0L73.8,0L73.8,0L36.9,0L36.9,0L0,0L0,0Z"></path></svg>